# xmcd
#
# Track frame offsets:
# 150
# 18981
# 37530
# 55155
# 73245
# 91245
# 114627
# 154350
# 172686
# 190860
# 211122
#
# Disc length: 3633 seconds
#
# Revision: 1
# Processed by: cddbd v1.5.2PL0 Copyright (c) Steve Scherf et al.
# Submitted via: CedeCatalogueitor 2.6.0.6 http://personales.ya.com/cdcatalogueitor
#
DISCID=840e2f0b
DTITLE=The All New Adventures Of Us - Best Loved Goodnight Tales
DYEAR=1900
DGENRE=
TTITLE0=F
TTITLE1=D
TTITLE2=Se
TTITLE3=R
TTITLE4=T
TTITLE5=G
TTITLE6=F
TTITLE7=D
TTITLE8=Er
TTITLE9=G
TTITLE10=Fdertf
EXTD=
EXTT0=
EXTT1=
EXTT2=
EXTT3=
EXTT4=
EXTT5=
EXTT6=
EXTT7=
EXTT8=
EXTT9=
EXTT10=
PLAYORDER=
